# xmcd
#
# Track frame offsets:
#	182
#	11170
#	20522
#	33130
#	44760
#	55920
#	66717
#	75655
#	85887
#	98147
#	106502
#	116950
#	126995
#	136972
#	148402
#	159215
#	166852
#	174930
#	180855
#	192065
#	203415
#	215185
#	224935
#	236267
#	248167
#	258297
#	265850
#	274975
#	287322
#	294915
#	303787
#	312540
#
# Disc length: 4323 seconds
#
# Revision: 3
# Processed by: cddbd v1.5.2PL0 Copyright (c) Steve Scherf et al.
# Submitted via: audiograbber 1.82.01
#
DISCID=d010e120
DTITLE=Johnny Cash - 1955 To 1958 Recordings
DYEAR=1988
DGENRE=Pop
TTITLE0=Cry, Cry, Cry
TTITLE1=Luther Played The Boogie
TTITLE2=Folsom Prison Blues
TTITLE3=So Doggone Lonesome
TTITLE4=Mean Eyed Cat
TTITLE5=Wide Open Road
TTITLE6=Two Timin' Woman
TTITLE7=There You Go
TTITLE8=I walk The Line
TTITLE9=Country Boy
TTITLE10=Train Of Love
TTITLE11=Get Rhythm
TTITLE12=Hey Porter
TTITLE13=Wide Open Road
TTITLE14=Belshazar
TTITLE15=If The Good Lord's Willing
TTITLE16=Wreck Of The Old 97
TTITLE17=You Tell Me
TTITLE18=Oh! Lonesome Me
TTITLE19=Big River
TTITLE20=Doin' My Time
TTITLE21=Rock Island Line
TTITLE22=Don't Make Me Go
TTITLE23=Home Of The Blues
TTITLE24=Straight A's In Love
TTITLE25=Come In Stranger
TTITLE26=Blue Train
TTITLE27=Next In Line
TTITLE28=Hey Good Lookin'
TTITLE29=Life Goes On
TTITLE30=Katy Too
TTITLE31=Thanks A Lot
EXTD=
EXTT0=
EXTT1=
EXTT2=
EXTT3=
EXTT4=
EXTT5=
EXTT6=
EXTT7=
EXTT8=
EXTT9=
EXTT10=
EXTT11=
EXTT12=
EXTT13=
EXTT14=
EXTT15=
EXTT16=
EXTT17=
EXTT18=
EXTT19=
EXTT20=
EXTT21=
EXTT22=
EXTT23=
EXTT24=
EXTT25=
EXTT26=
EXTT27=
EXTT28=
EXTT29=
EXTT30=
EXTT31=
PLAYORDER=
